<svg version="1.2" xmlns="http://www.w3.org/2000/svg" viewBox="0 0 900 250" width="900" height="250"><style>.a{fill:#20b2aa}.b{fill:#203e5f}.c{fill:#1e3854}.d{fill:#1d3249}.e{fill:#1c2c3e}.f{fill:#1a2634}</style><path fill-rule="evenodd" class="a" d="m0-350h900v600h-900z"/><path class="b" d="m0 70l21.5-5.5c21.5-5.5 64.5-16.5 107.3-18.7 42.9-2.1 85.5 4.5 128.4 4.4 42.8-0.2 85.8-7.2 128.6-13 42.9-5.9 85.5-10.5 128.4-11.5 42.8-1 85.8 1.6 128.6 11.1 42.9 9.5 85.5 25.9 128.4 32.5 42.8 6.7 85.8 3.7 107.3 2.2l21.5-1.5v181h-21.5c-21.5 0-64.5 0-107.3 0-42.9 0-85.5 0-128.4 0-42.8 0-85.8 0-128.6 0-42.9 0-85.5 0-128.4 0-42.8 0-85.8 0-128.6 0-42.9 0-85.5 0-128.4 0-42.8 0-85.8 0-107.3 0h-21.5z"/><path class="c" d="m0 74l21.5 1.3c21.5 1.4 64.5 4 107.3 6 42.9 2 85.5 3.4 128.4 11.2 42.8 7.8 85.8 22.2 128.6 25 42.9 2.8 85.5-5.8 128.4-16.8 42.8-11 85.8-24.4 128.6-28.5 42.9-4.2 85.5 0.8 128.4 11.1 42.8 10.4 85.8 26 107.3 33.9l21.5 7.8v126h-21.5c-21.5 0-64.5 0-107.3 0-42.9 0-85.5 0-128.4 0-42.8 0-85.8 0-128.6 0-42.9 0-85.5 0-128.4 0-42.8 0-85.8 0-128.6 0-42.9 0-85.5 0-128.4 0-42.8 0-85.8 0-107.3 0h-21.5z"/><path class="d" d="m0 114l21.5 1.7c21.5 1.6 64.5 5 107.3 8.5 42.9 3.5 85.5 7.1 128.4 10.8 42.8 3.7 85.8 7.3 128.6 4.3 42.9-3 85.5-12.6 128.4-18.6 42.8-6 85.8-8.4 128.6-9.4 42.9-1 85.5-0.6 128.4 2.5 42.8 3.2 85.8 9.2 107.3 12.2l21.5 3v122h-21.5c-21.5 0-64.5 0-107.3 0-42.9 0-85.5 0-128.4 0-42.8 0-85.8 0-128.6 0-42.9 0-85.5 0-128.4 0-42.8 0-85.8 0-128.6 0-42.9 0-85.5 0-128.4 0-42.8 0-85.8 0-107.3 0h-21.5z"/><path class="e" d="m0 147l21.5 1.8c21.5 1.9 64.5 5.5 107.3 6.4 42.9 0.8 85.5-1.2 128.4-0.4 42.8 0.9 85.8 4.5 128.6 8.7 42.9 4.2 85.5 8.8 128.4 8.2 42.8-0.7 85.8-6.7 128.6-10.4 42.9-3.6 85.5-5 128.4-3.3 42.8 1.7 85.8 6.3 107.3 8.7l21.5 2.3v82h-21.5c-21.5 0-64.5 0-107.3 0-42.9 0-85.5 0-128.4 0-42.8 0-85.8 0-128.6 0-42.9 0-85.5 0-128.4 0-42.8 0-85.8 0-128.6 0-42.9 0-85.5 0-128.4 0-42.8 0-85.8 0-107.3 0h-21.5z"/><path class="f" d="m0 217l21.5-2.2c21.5-2.1 64.5-6.5 107.3-6.6 42.9-0.2 85.5 3.8 128.4 3.6 42.8-0.1 85.8-4.5 128.6-6.6 42.9-2.2 85.5-2.2 128.4 0.8 42.8 3 85.8 9 128.6 11.7 42.9 2.6 85.5 2 128.4 1.6 42.8-0.3 85.8-0.3 107.3-0.3h21.5v32h-21.5c-21.5 0-64.5 0-107.3 0-42.9 0-85.5 0-128.4 0-42.8 0-85.8 0-128.6 0-42.9 0-85.5 0-128.4 0-42.8 0-85.8 0-128.6 0-42.9 0-85.5 0-128.4 0-42.8 0-85.8 0-107.3 0h-21.5z"/></svg>